<?xml version="1.0" encoding="UTF-8"?>
<svg id="Layer_2" data-name="Layer 2" xmlns="http://www.w3.org/2000/svg" viewBox="0 0 465.12 48.32">
  <defs>
    <style>
      .cls-1 {
        fill: #1f2c3d;
      }

      .cls-1, .cls-2, .cls-3 {
        stroke-width: 0px;
      }

      .cls-2 {
        fill: #ffe813;
      }

      .cls-3 {
        fill: #ffe812;
      }
    </style>
  </defs>
  <g id="Layer_1-2" data-name="Layer 1">
    <g>
      <path class="cls-2" d="M1.61,41.22c-1.07-1.32-1.61-2.5-1.61-3.55s.88-2.44,2.66-4.17c1.03-.99,2.12-1.48,3.27-1.48s2.76,1.03,4.82,3.09c.58.7,1.4,1.37,2.47,2.01,1.07.64,2.06.96,2.96.96,3.83,0,5.74-1.56,5.74-4.69,0-.95-.52-1.74-1.57-2.38-1.05-.64-2.36-1.1-3.92-1.39-1.56-.29-3.25-.75-5.06-1.39-1.81-.64-3.5-1.39-5.06-2.25-1.56-.86-2.87-2.23-3.92-4.11-1.05-1.87-1.57-4.13-1.57-6.76,0-3.62,1.35-6.78,4.04-9.48C7.54,2.92,11.22,1.57,15.87,1.57c2.47,0,4.72.32,6.76.96,2.04.64,3.45,1.29,4.23,1.95l1.54,1.17c1.28,1.19,1.91,2.2,1.91,3.03s-.49,1.96-1.48,3.4c-1.4,2.06-2.84,3.09-4.32,3.09-.86,0-1.94-.41-3.21-1.23-.12-.08-.36-.29-.71-.62-.35-.33-.67-.6-.96-.8-.86-.53-1.97-.8-3.3-.8s-2.45.32-3.33.96c-.89.64-1.33,1.52-1.33,2.66s.52,2.05,1.57,2.75c1.05.7,2.36,1.17,3.92,1.42,1.56.25,3.27.63,5.13,1.14,1.85.52,3.56,1.14,5.13,1.88,1.56.74,2.87,2.03,3.92,3.86s1.57,4.09,1.57,6.76-.54,5.03-1.61,7.07c-1.07,2.04-2.47,3.61-4.2,4.72-3.33,2.18-6.9,3.27-10.68,3.27-1.94,0-3.77-.24-5.5-.71s-3.13-1.06-4.2-1.76c-2.18-1.32-3.71-2.59-4.57-3.83l-.56-.68Z"/>
      <path class="cls-2" d="M77.19,3.18c2.02,1.4,3.03,2.76,3.03,4.08,0,.78-.47,1.87-1.42,3.27l-13.34,19.95v11.79c0,.95-.03,1.66-.09,2.13-.06.47-.26,1.02-.59,1.64-.33.62-.89,1.05-1.67,1.3-.78.25-1.83.37-3.15.37s-2.37-.12-3.15-.37c-.78-.25-1.34-.69-1.67-1.33-.33-.64-.52-1.19-.59-1.67-.06-.47-.09-1.2-.09-2.19v-11.67l-13.34-19.95c-.95-1.4-1.42-2.49-1.42-3.27,0-1.32.91-2.58,2.72-3.8,1.81-1.21,3.11-1.82,3.89-1.82s1.4.17,1.85.49c.7.45,1.44,1.3,2.22,2.53l9.57,15.31,9.57-15.31c.78-1.23,1.46-2.05,2.04-2.44.58-.39,1.25-.59,2.01-.59s1.97.52,3.61,1.54Z"/>
      <path class="cls-2" d="M119.03,4.2c.39-.72.98-1.2,1.76-1.45.78-.25,1.76-.37,2.93-.37s2.12.1,2.84.31c.72.21,1.26.45,1.61.74.35.29.61.72.77,1.3.25.66.37,1.71.37,3.15v34.27c0,.99-.03,1.71-.09,2.16-.06.45-.26.99-.59,1.61-.58,1.11-2.18,1.67-4.82,1.67-1.61,0-2.72-.12-3.33-.37s-1.13-.64-1.54-1.17c-9.26-12.35-15.36-20.42-18.28-24.21v20.32c0,.99-.03,1.71-.09,2.16-.06.45-.26.99-.59,1.61-.58,1.11-2.18,1.67-4.82,1.67s-4.12-.56-4.69-1.67c-.33-.62-.52-1.17-.59-1.67-.06-.49-.09-1.21-.09-2.16V7.62c0-1.56.19-2.71.59-3.43.39-.72.98-1.2,1.76-1.45.78-.25,1.79-.37,3.03-.37s2.21.11,2.93.34c.72.23,1.22.48,1.51.77.16.12.64.66,1.42,1.61,8.69,11.82,14.49,19.62,17.41,23.4V7.62c0-1.56.19-2.71.59-3.43Z"/>
      <path class="cls-1" d="M209.77,1.76c6.09,0,11.38,2.2,15.87,6.61,4.49,4.41,6.73,9.87,6.73,16.4s-2.14,12.08-6.42,16.67c-4.28,4.59-9.55,6.89-15.81,6.89s-11.58-2.26-15.96-6.79c-4.38-4.53-6.58-9.92-6.58-16.18,0-3.42.62-6.62,1.85-9.6,1.23-2.98,2.88-5.49,4.94-7.5,2.06-2.02,4.42-3.6,7.1-4.76,2.68-1.15,5.43-1.73,8.27-1.73ZM198.54,25.04c0,3.67,1.18,6.64,3.55,8.92,2.37,2.28,5.01,3.43,7.94,3.43s5.56-1.11,7.9-3.33c2.35-2.22,3.52-5.21,3.52-8.95s-1.18-6.75-3.55-9.02c-2.37-2.26-5.01-3.4-7.94-3.4s-5.56,1.14-7.9,3.43c-2.35,2.28-3.52,5.26-3.52,8.92Z"/>
      <path class="cls-1" d="M275.97,11.45c1.07,2.18,1.61,4.61,1.61,7.29s-.54,5.09-1.61,7.26c-1.07,2.16-2.45,3.88-4.14,5.16-3.42,2.64-6.96,3.95-10.62,3.95h-7.72v6.98c0,.95-.03,1.66-.09,2.13-.06.47-.26,1.02-.59,1.64-.58,1.11-2.18,1.67-4.82,1.67-2.88,0-4.57-.76-5.06-2.29-.25-.7-.37-1.77-.37-3.21V7.75c0-.95.03-1.66.09-2.13.06-.47.26-1.02.59-1.64.58-1.11,2.18-1.67,4.82-1.67h13.22c3.62,0,7.14,1.32,10.56,3.95,1.69,1.28,3.07,3.01,4.14,5.19ZM264.92,22.82c1.19-.91,1.79-2.26,1.79-4.08s-.6-3.18-1.79-4.11c-1.19-.93-2.43-1.39-3.71-1.39h-7.72v10.93h7.78c1.24,0,2.45-.45,3.64-1.36Z"/>
      <path class="cls-1" d="M298.7,36.65h19.02c.95,0,1.66.03,2.13.09s1.02.26,1.64.59c1.11.58,1.67,2.18,1.67,4.82,0,2.88-.76,4.57-2.29,5.06-.7.25-1.77.37-3.21.37h-24.46c-2.88,0-4.57-.78-5.06-2.35-.25-.66-.37-1.71-.37-3.15V7.75c0-2.1.39-3.53,1.17-4.29.78-.76,2.26-1.14,4.45-1.14h24.33c.95,0,1.66.03,2.13.09.47.06,1.02.26,1.64.59,1.11.58,1.67,2.18,1.67,4.82,0,2.88-.76,4.57-2.29,5.06-.7.25-1.77.37-3.21.37h-18.96v6.24h12.23c.95,0,1.66.03,2.13.09.47.06,1.02.26,1.64.59,1.11.58,1.67,2.18,1.67,4.82,0,2.88-.78,4.57-2.35,5.06-.7.25-1.77.37-3.21.37h-12.1v6.24Z"/>
      <path class="cls-1" d="M362.58,4.2c.39-.72.98-1.2,1.76-1.45.78-.25,1.76-.37,2.93-.37s2.12.1,2.84.31c.72.21,1.26.45,1.61.74.35.29.61.72.77,1.3.25.66.37,1.71.37,3.15v34.27c0,.99-.03,1.71-.09,2.16-.06.45-.26.99-.59,1.61-.58,1.11-2.18,1.67-4.82,1.67-1.61,0-2.72-.12-3.33-.37-.62-.25-1.13-.64-1.54-1.17-9.26-12.35-15.36-20.42-18.28-24.21v20.32c0,.99-.03,1.71-.09,2.16s-.26.99-.59,1.61c-.58,1.11-2.18,1.67-4.82,1.67s-4.12-.56-4.69-1.67c-.33-.62-.52-1.17-.59-1.67-.06-.49-.09-1.21-.09-2.16V7.62c0-1.56.2-2.71.59-3.43.39-.72.98-1.2,1.76-1.45s1.79-.37,3.03-.37,2.21.11,2.93.34c.72.23,1.22.48,1.51.77.16.12.64.66,1.42,1.61,8.69,11.82,14.49,19.62,17.42,23.4V7.62c0-1.56.19-2.71.59-3.43Z"/>
      <path class="cls-1" d="M394.91,36.65h19.02c.95,0,1.66.03,2.13.09s1.02.26,1.64.59c1.11.58,1.67,2.18,1.67,4.82,0,2.88-.76,4.57-2.29,5.06-.7.25-1.77.37-3.21.37h-24.46c-2.88,0-4.57-.78-5.06-2.35-.25-.66-.37-1.71-.37-3.15V7.75c0-2.1.39-3.53,1.17-4.29.78-.76,2.26-1.14,4.45-1.14h24.33c.95,0,1.66.03,2.13.09.47.06,1.02.26,1.64.59,1.11.58,1.67,2.18,1.67,4.82,0,2.88-.76,4.57-2.29,5.06-.7.25-1.77.37-3.21.37h-18.96v6.24h12.23c.95,0,1.66.03,2.13.09.47.06,1.02.26,1.64.59,1.11.58,1.67,2.18,1.67,4.82,0,2.88-.78,4.57-2.35,5.06-.7.25-1.77.37-3.21.37h-12.1v6.24Z"/>
      <path class="cls-1" d="M464.2,39.92c.62,1.48.93,2.55.93,3.21,0,1.57-1.28,2.88-3.83,3.95-1.32.58-2.38.86-3.18.86s-1.46-.2-1.98-.59-.89-.79-1.14-1.2c-.41-.78-2.02-4.51-4.82-11.18l-1.91.12h-7.78v6.98c0,.95-.03,1.66-.09,2.13-.06.47-.26,1.02-.59,1.64-.58,1.11-2.18,1.67-4.82,1.67-2.88,0-4.57-.76-5.06-2.29-.25-.7-.37-1.77-.37-3.21V7.75c0-.95.03-1.66.09-2.13.06-.47.26-1.02.59-1.64.58-1.11,2.18-1.67,4.82-1.67h13.34c3.62,0,7.14,1.32,10.56,3.95,1.65,1.28,3,3.01,4.08,5.19,1.07,2.18,1.61,4.61,1.61,7.29,0,4.65-1.54,8.48-4.63,11.49.9,2.18,2.3,5.41,4.2,9.7ZM440.48,24.17h7.9c1.19,0,2.39-.45,3.58-1.36,1.19-.91,1.79-2.26,1.79-4.08s-.6-3.18-1.79-4.11c-1.19-.93-2.43-1.39-3.71-1.39h-7.78v10.93Z"/>
    </g>
    <path class="cls-3" d="M165.63,14.73c-.21-.4.01-.95.07-1.4.25-1.35-.09-1.84-1.41-2.02-1.68-.2-3.45-.14-5.11.16-5.04.93-8.56,4.29-10.1,9.8-.2.61-.41,1.41-.92,1.76-.55.35-1.3.13-1.9-.03-1.45-.43-2.82-.79-4.29-1.08-2.35-.37-2.79-1.24-2.11-3.54,3.1-12.36,15.71-18.95,27.67-16.02.85.25,1.87.67,2.72.52.89-.15,1.34-.9,1.77-1.75.41-1,.98-1.68,1.71-.52,1.85,3.64,3.46,7.48,5.14,11.18.27.58.33,1.28-.35,1.51-3.88.77-7.86,1.02-11.85,1.59-.32.03-.81.11-1-.12l-.03-.04Z"/>
    <path class="cls-3" d="M140.99,41.61c-.15-.14-.19-.69-.21-.99-.3-4.21-.55-7.87-.82-11.48-.13-1.56-.28-2.89,1.81-2.35,3.52.89,7.08,1.77,10.59,2.66,1.15.34,1.04,1.05.19,1.84-.6.61-1.21,1.27-1.26,1.76,0,1.15,1.39,1.95,2.18,2.67,4.52,3.47,11.85,3.5,17.01.01,1.73-1.23,2.63-2.2,4.3-.18,1.12,1.25,2.26,2.37,3.46,3.55.27.29.56.62.68.97.16.43-.01.87-.35,1.27-8.07,8.02-23.96,8.26-32.16.84-1.59-1.5-3.02-3.19-4.89-.91-.18.16-.31.38-.52.34l-.03-.02Z"/>
  </g>
</svg>