<?xml version="1.0" encoding="UTF-8"?>
<svg id="Layer_2" data-name="Layer 2" xmlns="http://www.w3.org/2000/svg" viewBox="0 0 279.99 128.08">
  <defs>
    <style>
      .cls-1 {
        font-family: FredokaOne-Regular, 'Fredoka One';
        font-size: 61.75px;
      }

      .cls-2 {
        fill: none;
        letter-spacing: .1em;
      }

      .cls-3 {
        letter-spacing: .07em;
      }

      .cls-3, .cls-4 {
        fill: #ffe813;
      }

      .cls-5 {
        fill: #ffe812;
        stroke-width: 0px;
      }

      .cls-6 {
        fill: #1f2c3d;
      }

      .cls-6, .cls-4 {
        letter-spacing: .1em;
      }
    </style>
  </defs>
  <g id="Layer_1-2" data-name="Layer 1">
    <text class="cls-1" transform="translate(49.28 53.51)"><tspan class="cls-3" x="0" y="0">S</tspan><tspan class="cls-4" x="40.32" y="0">YN</tspan><tspan class="cls-2" x="139.5" y="0">C</tspan><tspan class="cls-6"><tspan x="-49.28" y="60">OPENER</tspan></tspan></text>
    <path class="cls-5" d="M216.74,20.66c-.21-.4.01-.95.07-1.4.25-1.35-.09-1.84-1.41-2.02-1.68-.2-3.45-.14-5.11.16-5.04.93-8.56,4.29-10.1,9.8-.2.61-.41,1.41-.92,1.76-.55.35-1.3.13-1.9-.03-1.45-.43-2.82-.79-4.29-1.08-2.35-.37-2.79-1.24-2.11-3.54,3.1-12.36,15.71-18.95,27.67-16.02.85.25,1.87.67,2.72.52.89-.15,1.34-.9,1.77-1.75.41-1,.98-1.68,1.71-.52,1.85,3.64,3.46,7.48,5.14,11.18.27.58.33,1.28-.35,1.51-3.88.77-7.86,1.02-11.85,1.59-.32.03-.81.11-1-.12l-.03-.04Z"/>
    <path class="cls-5" d="M192.1,47.55c-.15-.14-.19-.69-.21-.99-.3-4.21-.55-7.87-.82-11.48-.13-1.56-.28-2.89,1.81-2.35,3.52.89,7.08,1.77,10.59,2.66,1.15.34,1.04,1.05.19,1.84-.6.61-1.21,1.27-1.26,1.76,0,1.15,1.39,1.95,2.18,2.67,4.52,3.47,11.85,3.5,17.01.01,1.73-1.23,2.63-2.2,4.3-.18,1.12,1.25,2.26,2.37,3.46,3.55.27.29.56.62.68.97.16.43-.01.87-.35,1.27-8.07,8.02-23.96,8.26-32.16.84-1.59-1.5-3.02-3.19-4.89-.91-.18.16-.31.38-.52.34l-.03-.02Z"/>
  </g>
</svg>